<svg width="20" height="19" viewBox="0 0 20 19" fill="none" xmlns="http://www.w3.org/2000/svg">
<path d="M14.7917 0C12.5732 0 10.741 2.06055 10 3.03305C9.25902 2.06055 7.42676 0 5.20832 0C2.33645 0 0 2.64039 0 5.88543C0 7.65586 0.702734 9.30582 1.93277 10.435C1.95066 10.4659 1.97266 10.4944 1.99828 10.52L9.70582 18.2117C9.78719 18.2927 9.8934 18.3334 10 18.3334C10.1066 18.3334 10.2132 18.2927 10.2946 18.2113L18.2585 10.2503L18.3407 10.1705C18.4058 10.1091 18.4701 10.0468 18.5421 9.96707C18.5722 9.93738 18.597 9.90398 18.6161 9.86777C19.5093 8.77402 20 7.36328 20 5.88543C20 2.64039 17.6636 0 14.7917 0Z" fill="#FFF200"/>
</svg>
